Coordinates
version=1
nRows=17
nColumns=24
inDegrees=yes

Units are S.I. units (second, meters, Newtons, ...)
Angles are in degrees.

endheader
time	pelvis_tilt	pelvis_list	pelvis_rotation	pelvis_tx	pelvis_ty	pelvis_tz	hip_flexion_r	hip_adduction_r	hip_rotation_r	knee_angle_r	ankle_angle_r	subtalar_angle_r	mtp_angle_r	hip_flexion_l	hip_adduction_l	hip_rotation_l	knee_angle_l	ankle_angle_l	subtalar_angle_l	mtp_angle_l	lumbar_extension	lumbar_bending	lumbar_rotation
42.49800000	4.84455933	-1.84559258	-0.77772078	0.60102028	1.04559875	-0.02160049	34.00156443	-2.90617367	-6.95037445	-27.16362137	3.89478279	-0.00000082	0.00000000	-9.36107235	1.38076320	0.20135362	-8.72155832	-0.43054519	0.00000249	0.00000000	-19.54310531	-0.47001089	-4.72635202
42.50000000	4.84455933	-1.84559258	-0.77772078	0.60102028	1.04559875	-0.02160049	34.02315924	-2.90617367	-6.95037445	-26.18407438	3.75464478	-0.00000082	0.00000000	-9.61734351	1.38076320	0.20135362	-8.70831500	-0.62686668	0.00000249	0.00000000	-19.54310531	-0.47001089	-4.72635202
42.50200000	4.84455933	-1.84559258	-0.77772078	0.60102028	1.04559875	-0.02160049	34.04097781	-2.90617367	-6.95037445	-25.23097828	3.62069976	-0.00000082	0.00000000	-9.87142294	1.38076320	0.20135362	-8.70406647	-0.82704440	0.00000249	0.00000000	-19.54310531	-0.47001089	-4.72635202
42.50400000	4.84455933	-1.84559258	-0.77772078	0.60102028	1.04559875	-0.02160049	34.05517144	-2.90617367	-6.95037445	-24.30641163	3.49424865	-0.00000082	0.00000000	-10.12359154	1.38076320	0.20135362	-8.70865579	-1.03141318	0.00000249	0.00000000	-19.54310531	-0.47001089	-4.72635202
42.50600000	4.84455933	-1.84559258	-0.77772078	0.60102028	1.04559875	-0.02160049	34.06594832	-2.90617367	-6.95037445	-23.41228246	3.37640731	-0.00000082	0.00000000	-10.37403479	1.38076320	0.20135362	-8.72193483	-1.24031569	0.00000249	0.00000000	-19.54310531	-0.47001089	-4.72635202
42.50800000	4.84455933	-1.84559258	-0.77772078	0.60102028	1.04559875	-0.02160049	34.07349814	-2.90617367	-6.95037445	-22.55035543	3.26817957	-0.00000082	0.00000000	-10.62296347	1.38076320	0.20135362	-8.74383145	-1.45406606	0.00000249	0.00000000	-19.54310531	-0.47001089	-4.72635202
42.51000000	4.84455933	-1.84559258	-0.77772078	0.60102028	1.04559875	-0.02160049	34.07825586	-2.90617367	-6.95037445	-21.72210308	3.17040290	-0.00000082	0.00000000	-10.87082993	1.38076320	0.20135362	-8.77446122	-1.67304436	0.00000249	0.00000000	-19.54310531	-0.47001089	-4.72635202
42.51200000	4.84455933	-1.84559258	-0.77772078	0.60102028	1.04559875	-0.02160049	34.08009374	-2.90617367	-6.95037445	-20.92910439	3.08372609	-0.00000082	0.00000000	-11.11760210	1.38076320	0.20135362	-8.81376383	-1.89751774	0.00000249	0.00000000	-19.54310531	-0.47001089	-4.72635202
42.51400000	4.84455933	-1.84559258	-0.77772078	0.60102028	1.04559875	-0.02160049	34.07873743	-2.90617367	-6.95037445	-20.17282187	3.00857200	-0.00000082	0.00000000	-11.36310685	1.38076320	0.20135362	-8.86167739	-2.12777195	0.00000249	0.00000000	-19.54310531	-0.47001089	-4.72635202
42.51600000	4.84455933	-1.84559258	-0.77772078	0.60102028	1.04559875	-0.02160049	34.07497627	-2.90617367	-6.95037445	-19.45399080	2.94526707	-0.00000082	0.00000000	-11.60795512	1.38076320	0.20135362	-8.91859896	-2.36402431	0.00000249	0.00000000	-19.54310531	-0.47001089	-4.72635202
42.51800000	4.84455933	-1.84559258	-0.77772078	0.60102028	1.04559875	-0.02160049	34.06797214	-2.90617367	-6.95037445	-18.77394460	2.89379378	-0.00000082	0.00000000	-11.85154248	1.38076320	0.20135362	-8.98439257	-2.60650785	0.00000249	0.00000000	-19.54310531	-0.47001089	-4.72635202
42.52000000	4.84455933	-1.84559258	-0.77772078	0.60102028	1.04559875	-0.02160049	34.05798750	-2.90617367	-6.95037445	-18.13325713	2.85402180	-0.00000082	0.00000000	-12.09416709	1.38076320	0.20135362	-9.05943840	-2.85538807	0.00000249	0.00000000	-19.54310531	-0.47001089	-4.72635202
42.52200000	4.84455933	-1.84559258	-0.77772078	0.60102028	1.04559875	-0.02160049	34.04482869	-2.90617367	-6.95037445	-17.53250801	2.82557711	-0.00000082	0.00000000	-12.33543637	1.38076320	0.20135362	-9.14384085	-3.11079206	0.00000249	0.00000000	-19.54310531	-0.47001089	-4.72635202
42.52400000	4.84455933	-1.84559258	-0.77772078	0.60102028	1.04559875	-0.02160049	34.02842841	-2.90617367	-6.95037445	-16.97198788	2.80786877	-0.00000082	0.00000000	-12.57540511	1.38076320	0.20135362	-9.23799334	-3.37285017	0.00000249	0.00000000	-19.54310531	-0.47001089	-4.72635202
42.52600000	4.84455933	-1.84559258	-0.77772078	0.60102028	1.04559875	-0.02160049	34.00837078	-2.90617367	-6.95037445	-16.45193668	2.80010651	-0.00000082	0.00000000	-12.81359514	1.38076320	0.20135362	-9.34208920	-3.64163223	0.00000249	0.00000000	-19.54310531	-0.47001089	-4.72635202
42.52800000	4.84455933	-1.84559258	-0.77772078	0.60102028	1.04559875	-0.02160049	33.98461216	-2.90617367	-6.95037445	-15.97218200	2.80133383	-0.00000082	0.00000000	-13.04988808	1.38076320	0.20135362	-9.45656561	-3.91721169	0.00000249	0.00000000	-19.54310531	-0.47001089	-4.72635202
42.53000000	4.84455933	-1.84559258	-0.77772078	0.60102028	1.04559875	-0.02160049	33.95679462	-2.90617367	-6.95037445	-15.53249029	2.81039177	-0.00000082	0.00000000	-13.28369419	1.38076320	0.20135362	-9.58168509	-4.19962212	0.00000249	0.00000000	-19.54310531	-0.47001089	-4.72635202
